PathFileType	4	(X/Y/Z)	/Users/itak/Documents/Research/Walk-IL/dataset/trc/00575_00009.trc
DataRate	CameraRate	NumFrames	NumMarkers	Units	OrigDataRate	OrigDataStartFrame	OrigNumFrames
100.000000	100.000000	4	53	mm	100.000000	260	521
Frame#	Time	RPSI			LPSI			L3			STRN			T10			C7			CLAV			RBAK			LBAK			LSHO			LUPA			LAEL			LAOL			LWTS			LWPS			LFRA			LIFD			LHPS			LHTS			RSHO			RUPA			RAEL			RAOL			RWTS			RWPS			RFRA			RIFD			RHTS			RHPS			RBHD			RFHD			LBHD			LHIP			RHIP			RASI			LASI			LKNE			LTHI			LANK			LTIP			LTOE			LMT1			LMT5			LHEE			RKNE			RTHI			RANK			RTIP			RTOE			RMT1			RMT5			RHEE			LFHD			
		X1	Y1	Z1	X2	Y2	Z2	X3	Y3	Z3	X4	Y4	Z4	X5	Y5	Z5	X6	Y6	Z6	X7	Y7	Z7	X8	Y8	Z8	X9	Y9	Z9	X10	Y10	Z10	X11	Y11	Z11	X12	Y12	Z12	X13	Y13	Z13	X14	Y14	Z14	X15	Y15	Z15	X16	Y16	Z16	X17	Y17	Z17	X18	Y18	Z18	X19	Y19	Z19	X20	Y20	Z20	X21	Y21	Z21	X22	Y22	Z22	X23	Y23	Z23	X24	Y24	Z24	X25	Y25	Z25	X26	Y26	Z26	X27	Y27	Z27	X28	Y28	Z28	X29	Y29	Z29	X30	Y30	Z30	X31	Y31	Z31	X32	Y32	Z32	X33	Y33	Z33	X34	Y34	Z34	X35	Y35	Z35	X36	Y36	Z36	X37	Y37	Z37	X38	Y38	Z38	X39	Y39	Z39	X40	Y40	Z40	X41	Y41	Z41	X42	Y42	Z42	X43	Y43	Z43	X44	Y44	Z44	X45	Y45	Z45	X46	Y46	Z46	X47	Y47	Z47	X48	Y48	Z48	X49	Y49	Z49	X50	Y50	Z50	X51	Y51	Z51	X52	Y52	Z52	X53	Y53	Z53	

261	2.6	-236.7454528808594	1003.8232421875	451.1586303710938	-177.8907775878906	998.308837890625	331.54345703125	-202.6172180175781	1104.222900390625	393.3715209960938	26.71415328979492	1285.00634765625	479.9503479003906	-202.490966796875	1230.87548828125	393.5809020996094	-156.0261840820312	1502.010131835938	436.8794250488281	10.9964714050293	1396.343017578125	475.2111511230469	-251.0390930175781	1377.246948242188	491.45703125	-163.261962890625	1451.540405273438	339.3910522460938	-47.76512145996094	1476.734130859375	287.1913452148438	-54.70991516113281	1355.755493164062	200.2449798583984	-64.54236602783203	1142.221801757812	157.0879516601562	-156.5116271972656	1139.79248046875	200.9100341796875	1.98455822467804	889.8160400390625	186.7171783447266	-41.33928298950195	877.3570556640625	111.4248733520508	-49.95178604125977	1055.794067382812	142.7789916992188	-21.36287117004395	723.2297973632812	171.0925140380859	-39.25825500488281	816.5453491210938	114.8938751220703	11.52615165710449	812.80859375	160.4370269775391	-149.6955871582031	1460.522094726562	599.3078002929688	-190.9296417236328	1398.480590820312	658.2055053710938	-219.3738403320312	1112.721069335938	707.0310668945312	-261.343505859375	1093.318237304688	664.677734375	-76.47678375244141	896.8394165039062	725.105224609375	-141.4763031005859	874.9085083007812	770.3262329101562	-211.5736541748047	1057.413818359375	719.500732421875	-60.2604866027832	731.561767578125	730.5509643554688	-48.97190475463867	810.3275146484375	757.8826293945312	-118.5689163208008	802.9656372070312	780.253173828125	-83.2679443359375	1682.329833984375	535.614990234375	53.01447677612305	1691.054443359375	566.8013916015625	-29.4527587890625	1678.945068359375	378.9662170410156	1.969971776008606	926.6009521484375	277.039306640625	-180.0386199951172	939.4065551757812	618.1951293945312	-76.32891845703125	972.0904541015625	605.5989990234375	41.81979370117188	956.2511596679688	357.95166015625	167.6343231201172	523.2908935546875	409.0823364257812	116.5888290405273	678.6266479492188	348.2617492675781	-22.85030746459961	75.33693695068359	344.3847045898438	54.32170104980469	291.7040405273438	363.3502197265625	156.3503112792969	56.64392852783203	455.8646545410156	79.71109008789062	60.65430450439453	469.2747802734375	94.70552062988281	56.57944869995117	364.4904174804688	-101.5339584350586	91.68008422851562	376.9173583984375	-117.927490234375	495.6119384765625	585.6181030273438	-135.7849884033203	785.8442993164062	632.9722900390625	-221.83642578125	38.62536239624023	514.4354858398438	-119.4255294799805	350.3736877441406	567.144775390625	-1.291141629219055	40.60858154296875	563.7862548828125	-43.90834045410156	39.38705444335938	500.2985534667969	-108.0663452148438	39.96835327148438	584.4752197265625	-250.7413177490234	31.10220718383789	442.1151733398438	94.45065307617188	1690.107666015625	428.6030578613281	
262	2.61	-230.2520294189453	1003.595825195312	454.336181640625	-171.8119049072266	997.8809814453125	334.6856994628906	-196.3910217285156	1103.909790039062	396.6206359863281	34.03249359130859	1284.356567382812	482.3633422851562	-196.1235656738281	1230.708618164062	396.8550109863281	-148.6292419433594	1501.607666015625	440.7778930664062	18.51309776306152	1395.695068359375	477.7638854980469	-243.3469543457031	1376.970458984375	496.1050720214844	-156.7334442138672	1451.191040039062	343.3470458984375	-41.58697509765625	1476.121826171875	290.1973571777344	-49.44216918945312	1355.011108398438	203.5046844482422	-60.09575271606445	1141.420654296875	160.6905822753906	-151.5005798339844	1139.227661132812	205.5080413818359	6.364531517028809	888.9305419921875	189.4447937011719	-38.03230285644531	876.5512084960938	114.7154159545898	-45.8657341003418	1054.991577148438	146.1734008789062	-17.59389114379883	722.3660278320312	174.0937957763672	-36.02276611328125	815.733642578125	118.1548767089844	15.32214164733887	811.887939453125	163.0329742431641	-140.9022369384766	1460.156494140625	603.174072265625	-181.6407165527344	1398.150512695312	662.5038452148438	-208.783935546875	1112.53125	712.601806640625	-250.9038848876953	1092.670043945312	670.7195434570312	-64.52705383300781	897.4000244140625	730.1779174804688	-129.0079040527344	875.3273315429688	776.0662231445312	-200.3827972412109	1057.266479492188	725.1206665039062	-47.58776092529297	732.2075805664062	735.951904296875	-36.3969841003418	811.0582275390625	762.9231567382812	-105.6528091430664	803.4969482421875	785.9686889648438	-74.76833343505859	1681.844970703125	539.1041870117188	61.78543853759766	1690.3310546875	569.0335693359375	-22.35724449157715	1678.3466796875	381.9659729003906	7.924006462097168	926.3189697265625	279.7761840820312	-173.5386199951172	939.2146606445312	621.2330322265625	-69.69232177734375	971.517578125	608.5369262695312	48.058349609375	955.8406372070312	360.5585327148438	176.1724090576172	524.7906494140625	412.266845703125	123.70654296875	679.2692260742188	350.7102355957031	3.917410373687744	67.91532897949219	359.2030334472656	71.78070831298828	287.8612670898438	372.2576599121094	185.3708953857422	59.15610885620117	468.3547668457031	108.8402099609375	60.1725959777832	482.7423095703125	122.5897827148438	54.65298461914062	377.8500671386719	-74.87362670898438	81.70166015625	392.3000793457031	-116.1980361938477	495.0505676269531	587.1671142578125	-130.547119140625	785.4340209960938	635.2314453125	-221.806640625	38.65234756469727	514.3986206054688	-118.5791931152344	350.0040893554688	567.9830932617188	-1.330501914024353	40.63980102539062	563.918701171875	-43.96884536743164	39.53324890136719	500.3505554199219	-108.1875762939453	39.88128662109375	584.5646362304688	-250.8354644775391	31.1873779296875	441.982421875	102.0151062011719	1689.310546875	430.4729919433594	
263	2.62	-223.6877593994141	1003.271850585938	457.5209045410156	-165.6667785644531	997.3175659179688	337.8304748535156	-190.0391235351562	1103.4765625	399.8559875488281	41.38981628417969	1283.609741210938	484.728271484375	-189.6446990966797	1230.41015625	400.047607421875	-141.1645355224609	1501.101684570312	444.5411071777344	26.06381607055664	1394.947021484375	480.2448425292969	-235.5903625488281	1376.586181640625	500.5930480957031	-150.1023406982422	1450.741821289062	347.1808166503906	-35.27739334106445	1475.421630859375	293.1115417480469	-43.98569488525391	1354.15087890625	206.7234802246094	-55.37853622436523	1140.4638671875	164.3466796875	-146.1884002685547	1138.543579101562	210.0743255615234	10.88289928436279	887.8731079101562	192.3124542236328	-34.52962493896484	875.5888671875	118.1429901123047	-41.54680252075195	1054.029663085938	149.6614227294922	-13.78146648406982	721.34033203125	177.2652587890625	-32.64197540283203	814.7572021484375	121.5900650024414	19.22897911071777	810.776611328125	165.7993469238281	-132.0613098144531	1459.694213867188	606.93896484375	-172.349853515625	1397.703491210938	666.6454467773438	-198.1819915771484	1112.222534179688	717.952880859375	-240.5412445068359	1091.938110351562	676.5740966796875	-52.65106964111328	897.8081665039062	735.1253662109375	-116.6546478271484	875.6237182617188	781.6259765625	-189.2160034179688	1057.006591796875	730.5183715820312	-35.03398513793945	732.7019653320312	741.259765625	-23.9505672454834	811.6378173828125	767.8518676757812	-92.89398193359375	803.9054565429688	791.5299072265625	-66.25096130371094	1681.252685546875	542.48681640625	70.58084106445312	1689.517456054688	571.1962280273438	-15.21383571624756	1677.65576171875	384.9096069335938	13.88938331604004	925.814697265625	282.5203857421875	-166.9870758056641	938.9775390625	624.3102416992188	-62.95107650756836	970.9132080078125	611.4646606445312	54.34925842285156	955.2550659179688	363.1525268554688	184.2703399658203	525.8660278320312	415.0962219238281	130.4816589355469	679.494873046875	352.8955993652344	30.78321647644043	61.17677307128906	373.8803100585938	89.11949157714844	284.1764221191406	380.9716796875	214.0098114013672	62.20002746582031	480.4477233886719	137.7228698730469	60.37278366088867	495.8954467773438	150.2707214355469	53.23436737060547	390.9518737792969	-48.00233840942383	72.5081787109375	407.6347351074219	-114.4104232788086	494.4995422363281	588.7227172851562	-125.1936798095703	784.9666137695312	637.477783203125	-221.7395935058594	38.70449447631836	514.349609375	-117.6642303466797	349.644775390625	568.8211059570312	-1.383221745491028	40.64618682861328	564.0404663085938	-44.07920837402344	39.59838104248047	500.3357238769531	-108.2856063842773	39.79119491577148	584.64404296875	-250.8959808349609	31.30400085449219	441.8829650878906	109.6061706542969	1688.427734375	432.2933044433594	
264	2.63	-217.0394592285156	1002.851745605469	460.7219848632812	-159.4403686523438	996.6278076171875	340.9755554199219	-183.567626953125	1102.9267578125	403.06982421875	48.79422760009766	1282.767456054688	487.0454406738281	-183.0502166748047	1229.983154296875	403.1674194335938	-133.6254119873047	1500.495849609375	448.1644592285156	33.65504837036133	1394.101928710938	482.6480102539062	-227.7647399902344	1376.100341796875	504.915771484375	-143.3611145019531	1450.193969726562	350.8857116699219	-28.83786392211914	1474.634887695312	295.9321594238281	-38.33621215820312	1353.181396484375	209.8859252929688	-50.40326690673828	1139.360961914062	168.0357208251953	-140.6095428466797	1137.734375	214.6274566650391	15.54201507568359	886.6529541015625	195.32080078125	-30.81990051269531	874.4699096679688	121.70458984375	-36.98937606811523	1052.918334960938	153.2261047363281	-9.897101402282715	720.161376953125	180.6138153076172	-29.09990882873535	813.6207275390625	125.1935272216797	23.27103614807129	809.4905395507812	168.7393188476562	-123.1748352050781	1459.134155273438	610.6021728515625	-163.0563049316406	1397.140380859375	670.6271362304688	-187.5778350830078	1111.797119140625	723.08154296875	-230.3104553222656	1091.1318359375	682.2650146484375	-40.8570442199707	898.06689453125	739.9356079101562	-104.4247970581055	875.7967529296875	786.9993286132812	-178.0914916992188	1056.636962890625	735.6937866210938	-22.60514259338379	733.0462646484375	746.468994140625	-11.63254928588867	812.0706787109375	772.66259765625	-80.30554962158203	804.1928100585938	796.9385986328125	-57.71256256103516	1680.554565429688	545.7550659179688	79.41056060791016	1688.622314453125	573.2889404296875	-8.019783020019531	1676.876220703125	387.7865905761719	19.87898635864258	925.0891723632812	285.2734069824219	-160.3591461181641	938.6932373046875	627.4287719726562	-56.08749008178711	970.2762451171875	614.3906860351562	60.6928596496582	954.4885864257812	365.7481689453125	191.9532165527344	526.5056762695312	417.6047058105469	136.9342803955078	679.29541015625	354.8397216796875	57.67808151245117	55.17671966552734	388.335205078125	106.3014602661133	280.6880187988281	389.4707641601562	242.1880493164062	65.83867645263672	492.101318359375	166.2632141113281	61.31864547729492	508.6791076660156	177.684814453125	52.37437438964844	403.7447509765625	-21.0187931060791	64.14974975585938	422.8452453613281	-112.553092956543	493.9639892578125	590.2631225585938	-119.7051239013672	784.4374389648438	639.7173461914062	-221.6366882324219	38.78076934814453	514.2832641601562	-116.6666717529297	349.2970581054688	569.6580810546875	-1.454119920730591	40.61996078491211	564.1400756835938	-44.2161979675293	39.58745193481445	500.2793884277344	-108.3454895019531	39.6993408203125	584.724853515625	-250.9265594482422	31.45302581787109	441.81494140625	117.2244644165039	1687.468505859375	434.0610656738281	
